<?xml version="1.0" standalone="no"?>
<!DOCTYPE svg PUBLIC "-//W3C//DTD SVG 20010904//EN"
 "http://www.w3.org/TR/2001/REC-SVG-20010904/DTD/svg10.dtd">
<svg version="1.0" xmlns="http://www.w3.org/2000/svg"
 width="198.000000pt" height="61.000000pt" viewBox="0 0 198.000000 61.000000"
 preserveAspectRatio="xMidYMid meet">

<g transform="translate(0.000000,61.000000) scale(0.100000,-0.100000)"
fill="#000000" stroke="none">
<path d="M0 305 l0 -305 990 0 990 0 0 305 0 305 -990 0 -990 0 0 -305z m745
183 c44 -94 26 -208 -42 -281 -66 -68 -131 5 -87 99 26 54 61 87 90 81 13 -2
24 -2 24 1 0 2 -12 31 -27 64 -26 59 -26 61 -8 74 10 8 20 14 22 14 2 0 15
-24 28 -52z m-500 -2 c18 -13 18 -15 -3 -87 -12 -41 -22 -78 -22 -84 0 -5 21
24 46 65 71 117 92 134 132 109 17 -11 17 -14 -1 -68 -12 -33 -22 -96 -25
-153 -5 -100 -8 -107 -46 -92 -21 8 -21 84 -1 178 8 38 13 71 11 73 -15 16
-102 -146 -112 -210 -8 -43 -16 -51 -44 -42 -17 5 -20 15 -20 63 1 31 7 86 15
122 7 36 12 66 11 68 -11 10 -116 -187 -116 -218 0 -25 -16 -41 -33 -34 -9 3
-17 12 -17 19 0 23 97 209 135 258 37 49 58 57 90 33z m659 -31 c19 -15 19
-16 -9 -45 -27 -28 -30 -29 -36 -12 -9 24 1 72 15 72 6 0 20 -7 30 -15z m997
-5 c18 -10 18 -13 4 -33 -19 -27 -19 -37 1 -37 8 0 12 -4 9 -10 -3 -5 -15 -10
-26 -10 -23 0 -48 -51 -57 -114 -5 -39 -5 -39 23 -32 25 6 27 5 16 -8 -18 -22
-54 -20 -76 4 -17 19 -18 23 -1 82 12 42 14 64 7 66 -18 6 -13 22 7 22 9 0 27
18 40 40 25 44 25 44 53 30z m-913 -56 c22 -15 27 -38 16 -68 -3 -9 -10 -14
-15 -11 -4 3 -6 12 -2 20 3 8 0 15 -6 15 -11 0 -31 -40 -31 -61 0 -5 7 -9 15
-9 8 0 15 -4 15 -10 0 -5 -7 -10 -15 -10 -10 0 -15 -10 -15 -30 0 -39 -33 -72
-67 -68 -58 7 -52 79 8 101 29 11 30 14 24 53 -4 32 -1 46 15 67 25 31 28 32
58 11z m656 -17 c9 -14 6 -27 -11 -58 l-23 -41 50 46 c46 43 82 57 94 38 3 -5
-6 -30 -19 -57 -29 -56 -33 -90 -10 -81 8 3 15 1 15 -4 0 -18 -51 -23 -68 -7
-13 14 -14 22 -4 54 6 20 10 39 8 41 -4 3 -40 -39 -94 -107 -19 -25 -19 -25
-30 -4 -13 24 6 104 41 166 22 39 33 42 51 14z m-1131 7 c3 -4 -4 -25 -17 -48
-27 -47 -49 -116 -36 -116 11 0 39 40 75 108 28 51 39 59 62 44 9 -6 7 -17 -6
-47 -9 -22 -28 -71 -42 -110 -32 -92 -98 -165 -150 -165 -19 0 -44 7 -55 16
-18 15 -18 15 5 10 42 -9 89 22 122 78 33 59 37 76 11 53 -47 -42 -88 -7 -71
59 23 85 75 145 102 118z m655 -30 c3 -32 -19 -61 -37 -49 -7 4 -5 14 5 30 22
33 0 42 -30 12 -26 -26 -48 -90 -39 -113 7 -18 28 -18 58 2 36 23 31 -1 -5
-26 -42 -30 -77 -20 -96 26 -30 71 31 158 105 152 32 -3 36 -6 39 -34z m148
14 c45 -44 22 -129 -47 -167 -37 -21 -41 -22 -64 -7 -44 29 -25 131 33 176 32
26 49 25 78 -2z m138 13 c3 -5 -5 -31 -19 -58 -13 -26 -27 -61 -30 -78 l-6
-30 25 30 c14 17 38 54 53 83 17 33 33 52 44 52 30 0 30 -15 3 -75 -16 -35
-24 -67 -22 -86 3 -19 0 -29 -8 -29 -16 0 -44 28 -44 43 0 7 -10 -1 -23 -17
-25 -31 -53 -32 -70 -4 -22 34 42 178 78 178 8 0 16 -4 19 -9z m-595 -30 c11
-7 10 -16 -7 -53 -12 -24 -24 -58 -28 -76 -7 -35 -15 -40 -34 -17 -14 16 -7
69 15 123 14 32 29 39 54 23z"/>
<path d="M699 333 c-47 -49 -77 -133 -49 -133 28 0 86 107 78 145 -2 14 -8 12
-29 -12z"/>
<path d="M892 228 c-7 -7 -12 -21 -12 -32 1 -20 1 -20 20 3 29 34 22 59 -8 29z"/>
<path d="M1262 316 c-29 -33 -50 -91 -38 -103 13 -13 54 17 69 50 18 38 23 87
8 87 -5 0 -22 -15 -39 -34z"/>
</g>
</svg>
